<svg xmlns="http://www.w3.org/2000/svg" width="64" height="64" viewBox="0 0 64 64" fill="none" stroke="#1b2a4a" stroke-width="2.4" stroke-linecap="round" stroke-linejoin="round"><path d="M4 58h56"/><rect x="9" y="46" width="8" height="12" fill="#3b78e7"/><rect x="21" y="38" width="8" height="20" fill="#3b78e7"/><rect x="33" y="30" width="8" height="28" fill="#3b78e7"/><rect x="45" y="22" width="8" height="36" fill="#3b78e7"/><path d="M6 38l12-11 7 5 13-13"/><path d="M31 19h7v7"/><circle cx="49" cy="10" r="7" fill="#dbe7fd"/><path d="M51.2 7.6c-.5-.7-1.3-1.1-2.2-1.1-1.3 0-2.2.7-2.2 1.7 0 2.3 4.6 1.2 4.6 3.5 0 1-1 1.8-2.4 1.8-1 0-1.9-.4-2.4-1.2M49 5v1.5M49 13.5V15" stroke-width="1.6"/></svg>
